<svg xmlns="http://www.w3.org/2000/svg" width="1643" height="363" fill="none" xmlns:v="https://vecta.io/nano"><style><![CDATA[.B{fill-rule:evenodd}]]></style><path d="M362 181.5C362 281.74 280.964 363 181 363S0 281.74 0 181.5 81.037 0 181 0s181 81.26 181 181.5z" fill="#f81b33"/><path d="M281.158 239.844c-9.447 12.811-30.009 57.37-32.787 89.119-3.44 5.195-34.403 15.727-37.789 14.481-.484-.273 3.334-140.919 138.929-215.556-3.615 40.599-15.86 101.299-47.349 146.123-5.269 7.501-18.586-31.737-21.004-34.167zM334.507 85c4.446.557 11.67 1.008 15.541 3.349 1.175 8.625 1.13 20.602.575 28.957-146.71 78.535-148.933 225.133-148.933 226.138-6.127 2.883-30.801 1.317-36.121-1.114C178.906 156.852 334.507 85 334.507 85zm-20.006.557s-144.486 76.099-157.268 255.102c-5.321 0-31.974-10.811-37.233-15.038 3.334-56.257 31.676-130.894 55.572-162.642-4.354-1.944-49.238-7.094-39.316-14.763 53.142-41.076 129.956-59.557 178.245-62.659z" fill="#fff" class="B"/><g fill="#111827"><path d="M736.989 284.964V134.542h29.236v150.422h-29.236zm14.765-173.632c-5.085 0-9.452-1.697-13.102-5.092-3.586-3.46-5.378-7.573-5.378-12.339 0-4.831 1.792-8.944 5.378-12.339 3.65-3.46 8.017-5.19 13.102-5.19s9.419 1.73 13.004 5.19c3.651 3.395 5.476 7.508 5.476 12.339 0 4.766-1.825 8.879-5.476 12.339-3.585 3.395-7.92 5.092-13.004 5.092zM868.818 288c-14.536 0-27.051-3.297-37.546-9.891-10.43-6.659-18.448-15.832-24.054-27.519s-8.408-25.07-8.408-40.151c0-15.278 2.868-28.759 8.604-40.446 5.736-11.752 13.819-20.924 24.249-27.519s22.717-9.891 36.862-9.891c11.408 0 21.577 2.122 30.507 6.366 8.93 4.178 16.133 10.054 21.609 17.628 5.541 7.573 8.832 16.419 9.875 26.539h-28.453c-1.564-7.051-5.15-13.123-10.756-18.215-5.54-5.093-12.971-7.639-22.293-7.639-8.148 0-15.286 2.155-21.413 6.464-6.063 4.243-10.788 10.315-14.178 18.215-3.39 7.834-5.085 17.105-5.085 27.812 0 10.968 1.663 20.435 4.987 28.4s8.018 14.135 14.08 18.509c6.128 4.374 13.331 6.561 21.609 6.561 5.541 0 10.56-1.012 15.058-3.035 4.563-2.09 8.376-5.06 11.44-8.912 3.129-3.852 5.313-8.487 6.551-13.906h28.453c-1.043 9.727-4.204 18.411-9.484 26.049s-12.353 13.645-21.218 18.02c-8.8 4.374-19.132 6.561-30.996 6.561zm92.963-3.036V134.542h29.236v150.422h-29.236zm14.764-173.632c-5.084 0-9.451-1.697-13.102-5.092-3.585-3.46-5.378-7.573-5.378-12.339 0-4.831 1.793-8.944 5.378-12.339 3.651-3.46 8.018-5.19 13.102-5.19s9.42 1.73 13.005 5.19c3.65 3.395 5.475 7.508 5.475 12.339 0 4.766-1.825 8.879-5.475 12.339-3.585 3.395-7.92 5.092-13.005 5.092zm244.645 84.319v89.313h-29.24V134.542h28.06v24.483h1.86c3.46-7.965 8.87-14.363 16.23-19.195 7.43-4.831 16.79-7.247 28.06-7.247 10.24 0 19.2 2.155 26.89 6.464 7.69 4.244 13.66 10.576 17.9 18.999 4.23 8.422 6.35 18.835 6.35 31.24v95.678h-29.23v-92.153c0-10.903-2.84-19.423-8.51-25.56-5.67-6.202-13.46-9.303-23.37-9.303-6.78 0-12.81 1.469-18.09 4.406-5.21 2.938-9.35 7.247-12.42 12.927-2.99 5.615-4.49 12.405-4.49 20.37zm237.77 89.313V134.542h29.23v150.422h-29.23zm14.76-173.632c-5.08 0-9.45-1.697-13.1-5.092-3.59-3.46-5.38-7.573-5.38-12.339 0-4.831 1.79-8.944 5.38-12.339 3.65-3.46 8.02-5.19 13.1-5.19 5.09 0 9.42 1.73 13.01 5.19 3.65 3.395 5.47 7.508 5.47 12.339 0 4.766-1.82 8.879-5.47 12.339-3.59 3.395-7.92 5.092-13.01 5.092zm166.35 59.934l-26.5 4.701c-1.11-3.395-2.87-6.627-5.28-9.695-2.35-3.069-5.54-5.582-9.58-7.541s-9.1-2.938-15.16-2.938c-8.28 0-15.19 1.861-20.73 5.582-5.54 3.656-8.31 8.39-8.31 14.2 0 5.027 1.86 9.075 5.57 12.144 3.72 3.068 9.72 5.582 18 7.54l23.85 5.484c13.82 3.2 24.12 8.129 30.9 14.788s10.17 15.31 10.17 25.952c0 9.009-2.61 17.04-7.82 24.091-5.15 6.986-12.35 12.47-21.61 16.452-9.19 3.983-19.85 5.974-31.97 5.974-16.82 0-30.54-3.591-41.17-10.772-10.62-7.247-17.14-17.53-19.55-30.849l28.25-4.309c1.76 7.378 5.38 12.96 10.86 16.747 5.47 3.721 12.61 5.582 21.41 5.582 9.58 0 17.24-1.992 22.98-5.974 5.73-4.048 8.6-8.977 8.6-14.788 0-4.7-1.76-8.65-5.28-11.849-3.45-3.199-8.77-5.615-15.94-7.247l-25.42-5.582c-14.01-3.199-24.38-8.292-31.09-15.278-6.65-6.985-9.97-15.832-9.97-26.539 0-8.879 2.47-16.648 7.43-23.308 4.95-6.659 11.8-11.849 20.53-15.571 8.73-3.786 18.74-5.68 30.02-5.68 16.23 0 29.01 3.526 38.33 10.577 9.32 6.986 15.48 16.354 18.48 28.106z"/><path d="M500.245 278.501c10.69 6.333 23.434 9.499 38.231 9.499 10.951 0 20.696-1.665 29.235-4.995 8.605-3.394 15.743-8.128 21.414-14.199 5.736-6.138 9.712-13.286 11.929-21.447l-27.672-4.995c-1.76 4.701-4.302 8.651-7.626 11.85s-7.268 5.615-11.831 7.247c-4.563 1.567-9.615 2.35-15.156 2.35-8.539 0-16.003-1.828-22.391-5.484-6.388-3.721-11.375-9.108-14.96-16.159-3.278-6.565-5.029-14.432-5.255-23.601h106.748v-10.381c0-13.645-1.825-25.233-5.475-34.765-3.651-9.598-8.637-17.399-14.96-23.406s-13.461-10.413-21.414-13.221-16.166-4.211-24.64-4.211c-13.949 0-26.139 3.297-36.569 9.891-10.364 6.595-18.447 15.767-24.249 27.519-5.736 11.752-8.604 25.332-8.604 40.739 0 15.604 2.868 29.217 8.604 40.838 5.802 11.556 14.015 20.533 24.641 26.931zm-4.033-81.871h78.05c0-7.704-1.564-14.526-4.693-20.467-3.129-6.007-7.529-10.74-13.2-14.2-5.606-3.46-12.19-5.191-19.751-5.191-8.213 0-15.384 2.024-21.511 6.072a40.73 40.73 0 0 0-14.08 15.669c-2.859 5.612-4.464 11.651-4.815 18.117zm-.074 2.742v17.138l.02 1.868.005.189h-12.639V196.63h12.688c-.05.906-.074 1.82-.074 2.742z" class="B"/><path d="M483.524 196.63v21.937h12.639l-.005-.189-.02-1.868v-17.138l.074-2.742h-12.688z"/><path d="M706.825 158.046v-23.504H674.46v-13.514c0-6.66 1.5-11.752 4.498-15.278 3.064-3.525 8.148-5.288 15.254-5.288 3.063 0 5.671.294 7.822.881 2.151.523 3.911.98 5.28 1.371l6.844-23.699c-2.02-.783-5.117-1.632-9.289-2.546-4.172-.979-9.191-1.469-15.057-1.469-7.953 0-15.319 1.567-22.098 4.701-6.78 3.069-12.223 7.737-16.329 14.004-4.107 6.202-6.16 14.004-6.16 23.405v17.432h-23.271v23.504h23.271v126.918h29.235V158.046h32.365zm-32.365 0v-23.504h-29.235v23.504h29.235z" class="B"/><path d="M674.46 158.046v-23.504h-29.235v23.504h29.235z"/><path d="M1056.85 278.501c10.69 6.333 23.43 9.499 38.23 9.499 10.95 0 20.69-1.665 29.23-4.995 8.61-3.394 15.74-8.128 21.42-14.199 5.73-6.138 9.71-13.286 11.92-21.447l-27.67-4.995c-1.76 4.701-4.3 8.651-7.62 11.85-3.33 3.199-7.27 5.615-11.83 7.247-4.57 1.567-9.62 2.35-15.16 2.35-8.54 0-16-1.828-22.39-5.484-6.39-3.721-11.38-9.108-14.96-16.159-3.28-6.565-5.03-14.432-5.26-23.601h106.75v-10.381c0-13.645-1.82-25.233-5.47-34.765-3.65-9.598-8.64-17.399-14.96-23.406-6.33-6.006-13.46-10.413-21.42-13.221a73.46 73.46 0 0 0-24.64-4.211c-13.95 0-26.14 3.297-36.57 9.891-10.36 6.595-18.44 15.767-24.24 27.519-5.74 11.752-8.61 25.332-8.61 40.739 0 15.604 2.87 29.217 8.61 40.838 5.8 11.556 14.01 20.533 24.64 26.931zm-4.04-81.871h78.05c0-7.704-1.56-14.526-4.69-20.467-3.13-6.007-7.53-10.74-13.2-14.2-5.61-3.46-12.19-5.191-19.75-5.191-8.21 0-15.38 2.024-21.51 6.072-6.06 3.983-10.76 9.206-14.08 15.669-2.86 5.612-4.47 11.651-4.82 18.117zm-.07 2.742v17.138l.02 1.868v.189h-12.63V196.63h12.68a49.8 49.8 0 0 0-.07 2.742z" class="B"/><path d="M1040.13 196.63v21.937h12.63v-.189l-.02-1.868v-17.138l.07-2.74-12.68-.002z"/><path d="M1426.62 158.046v-23.504h-30.8V98.504h-29.24v36.039h-22v23.504h22v88.823c0 9.075 2.06 16.616 6.16 22.622 4.11 6.006 9.49 10.446 16.14 13.319 6.64 2.872 13.81 4.243 21.51 4.113 4.69-.066 8.6-.457 11.73-1.175 3.13-.653 5.54-1.306 7.24-1.959l-5.28-24.189-4.11.783c-1.76.327-3.81.49-6.16.49-3.2 0-6.16-.49-8.9-1.469-2.67-1.044-4.86-2.97-6.55-5.778-1.7-2.872-2.54-7.149-2.54-12.829v-82.751h30.8zm-30.8 0v-23.504h-29.24v23.504h29.24z" class="B"/><path d="M1395.82 158.046v-23.504h-29.24v23.504h29.24z"/></g></svg>