<svg xmlns="http://www.w3.org/2000/svg" width="218" height="48" fill="none"><style><![CDATA[.B{fill-rule:evenodd}]]></style><path d="M47.868 24c0 13.255-10.716 24-23.934 24S0 37.255 0 24 10.716 0 23.934 0s23.934 10.745 23.934 24z" fill="#f81b33"/><path d="M37.178 31.715c-1.249 1.694-3.968 7.586-4.336 11.784-.455.687-4.549 2.08-4.997 1.915-.064-.036.441-18.634 18.371-28.503-.478 5.368-2.097 13.395-6.261 19.322-.697.992-2.458-4.197-2.777-4.518zm7.054-20.475c.588.074 1.543.133 2.055.443.155 1.14.149 2.724.076 3.829-19.4 10.385-19.694 29.77-19.694 29.903-.81.381-4.073.174-4.776-.147C23.657 20.741 44.232 11.24 44.232 11.24zm-2.645.074S22.481 21.376 20.791 45.046c-.704 0-4.228-1.43-4.923-1.989.441-7.439 4.188-17.308 7.348-21.506-.576-.257-6.511-.938-5.199-1.952 7.027-5.432 17.184-7.875 23.57-8.285z" fill="#fff" class="B"/><g fill="#111827"><path d="M97.453 37.681v-19.89h3.866v19.89h-3.866zm1.952-22.96c-.672 0-1.25-.224-1.733-.673a2.19 2.19 0 0 1-.711-1.632c0-.639.237-1.183.711-1.632a2.43 2.43 0 0 1 1.733-.686c.672 0 1.245.229 1.719.686.483.449.724.993.724 1.632 0 .63-.241 1.174-.724 1.632-.474.449-1.047.673-1.719.673zm15.48 23.362c-1.922 0-3.577-.436-4.965-1.308-1.379-.881-2.439-2.094-3.18-3.639s-1.112-3.315-1.112-5.309c0-2.02.379-3.803 1.137-5.348.759-1.554 1.828-2.767 3.207-3.639s3.004-1.308 4.874-1.308c1.509 0 2.853.281 4.034.842 1.181.552 2.134 1.329 2.858 2.331.732 1.002 1.168 2.171 1.305 3.509h-3.762c-.207-.932-.681-1.735-1.422-2.409-.733-.673-1.715-1.01-2.948-1.01-1.077 0-2.021.285-2.832.855-.801.561-1.426 1.364-1.874 2.409-.449 1.036-.673 2.262-.673 3.678 0 1.45.22 2.702.66 3.755s1.06 1.869 1.862 2.448c.81.578 1.762.868 2.857.868.733 0 1.396-.134 1.991-.401a4.07 4.07 0 0 0 1.513-1.178c.414-.509.702-1.122.866-1.839h3.762c-.137 1.286-.555 2.435-1.254 3.445s-1.633 1.804-2.805 2.383c-1.164.578-2.53.868-4.099.868zm12.293-.402v-19.89h3.866v19.89h-3.866zm1.952-22.96c-.672 0-1.25-.224-1.733-.673a2.19 2.19 0 0 1-.711-1.632c0-.639.237-1.183.711-1.632a2.43 2.43 0 0 1 1.733-.686 2.39 2.39 0 0 1 1.72.686c.482.449.724.993.724 1.632 0 .63-.242 1.174-.724 1.632-.475.449-1.048.673-1.72.673zm32.349 11.15v11.81h-3.866v-19.89h3.711v3.237h.246c.456-1.053 1.172-1.899 2.146-2.538.983-.639 2.219-.958 3.711-.958 1.353 0 2.538.285 3.555.855 1.017.561 1.806 1.399 2.366 2.512s.841 2.491.841 4.131v12.652h-3.866V25.496c0-1.442-.375-2.568-1.125-3.38-.75-.82-1.78-1.23-3.09-1.23-.897 0-1.694.194-2.392.583-.69.388-1.237.958-1.642 1.709-.397.742-.595 1.64-.595 2.694zm31.441 11.81v-19.89h3.866v19.89h-3.866zm1.952-22.96c-.672 0-1.25-.224-1.732-.673a2.19 2.19 0 0 1-.711-1.632c0-.639.237-1.183.711-1.632.482-.458 1.06-.686 1.732-.686s1.246.229 1.72.686c.483.449.724.993.724 1.632 0 .63-.241 1.174-.724 1.632a2.41 2.41 0 0 1-1.72.673zm21.996 7.926l-3.504.622c-.146-.449-.379-.876-.698-1.282-.31-.406-.732-.738-1.267-.997s-1.202-.389-2.004-.389c-1.095 0-2.008.246-2.741.738-.733.483-1.099 1.109-1.099 1.878 0 .665.246 1.2.737 1.606s1.284.738 2.379.997l3.155.725c1.827.423 3.189 1.075 4.086 1.955s1.344 2.024 1.344 3.432c0 1.191-.345 2.253-1.034 3.186-.681.924-1.634 1.649-2.858 2.176-1.215.527-2.624.79-4.227.79-2.224 0-4.039-.475-5.444-1.424-1.405-.958-2.267-2.318-2.586-4.079l3.737-.57c.233.975.711 1.714 1.435 2.214.724.492 1.668.738 2.832.738 1.267 0 2.28-.263 3.038-.79.759-.535 1.138-1.187 1.138-1.955 0-.622-.233-1.144-.698-1.567-.457-.423-1.16-.742-2.108-.958l-3.361-.738c-1.854-.423-3.224-1.096-4.112-2.02-.879-.924-1.319-2.093-1.319-3.509 0-1.174.328-2.201.983-3.082s1.56-1.567 2.715-2.059c1.155-.501 2.478-.751 3.969-.751 2.147 0 3.836.466 5.069 1.398 1.232.924 2.047 2.163 2.443 3.717z"/><path d="M66.148 36.827c1.414.837 3.099 1.256 5.055 1.256 1.448 0 2.737-.22 3.866-.66 1.138-.449 2.082-1.075 2.832-1.878a6.64 6.64 0 0 0 1.577-2.836l-3.659-.66c-.233.622-.569 1.144-1.008 1.567s-.961.742-1.564.958c-.603.207-1.271.311-2.004.311-1.129 0-2.116-.242-2.961-.725-.845-.492-1.504-1.204-1.978-2.137-.433-.868-.665-1.908-.695-3.121h14.115v-1.373c0-1.804-.241-3.337-.724-4.597-.483-1.269-1.142-2.301-1.978-3.095a7.89 7.89 0 0 0-2.832-1.748 9.72 9.72 0 0 0-3.258-.557c-1.845 0-3.457.436-4.836 1.308-1.37.872-2.439 2.085-3.206 3.639-.758 1.554-1.138 3.35-1.138 5.387 0 2.063.379 3.863 1.138 5.4.767 1.528 1.853 2.715 3.258 3.561zm-.533-10.826h10.321c0-1.019-.207-1.921-.621-2.706-.414-.794-.995-1.42-1.745-1.878-.741-.458-1.612-.686-2.612-.686-1.086 0-2.034.268-2.844.803-.802.527-1.422 1.217-1.862 2.072-.378.742-.59 1.541-.637 2.396zm-.01.363v2.266l.003.247v.025h-1.671v-2.901h1.678l-.01.363z" class="B"/><path d="M63.937 26.001v2.901h1.671v-.025l-.003-.247v-2.266l.01-.363h-1.678z"/><path d="M93.464 20.899v-3.108h-4.28v-1.787c0-.88.198-1.554.595-2.02.405-.466 1.077-.699 2.017-.699.405 0 .75.039 1.034.117l.698.181.905-3.134c-.267-.104-.677-.216-1.228-.337-.552-.129-1.215-.194-1.991-.194-1.051 0-2.026.207-2.922.622-.896.406-1.616 1.023-2.159 1.852-.543.82-.814 1.852-.814 3.095v2.305h-3.077v3.108h3.077v16.783h3.866V20.899h4.28zm-4.28 0v-3.108h-3.866v3.108h3.866z" class="B"/><path d="M89.185 20.899v-3.108h-3.866v3.108h3.866z"/><path d="M139.748 36.827c1.414.837 3.099 1.256 5.056 1.256 1.448 0 2.736-.22 3.865-.66 1.138-.449 2.082-1.075 2.832-1.878.758-.812 1.284-1.757 1.577-2.836l-3.659-.66a4.16 4.16 0 0 1-1.008 1.567c-.44.423-.961.742-1.565.958-.603.207-1.271.311-2.004.311-1.129 0-2.116-.242-2.961-.725-.844-.492-1.504-1.204-1.978-2.137-.433-.868-.665-1.908-.695-3.121h14.116v-1.373c0-1.804-.241-3.337-.724-4.597-.483-1.269-1.142-2.301-1.978-3.095s-1.78-1.377-2.832-1.748a9.71 9.71 0 0 0-3.258-.557c-1.845 0-3.456.436-4.836 1.308-1.37.872-2.439 2.085-3.206 3.639-.759 1.554-1.138 3.35-1.138 5.387 0 2.063.379 3.863 1.138 5.4.767 1.528 1.853 2.715 3.258 3.561zm-.533-10.826h10.321c0-1.019-.207-1.921-.621-2.706-.414-.794-.996-1.42-1.745-1.878-.742-.458-1.612-.686-2.612-.686-1.086 0-2.034.268-2.845.803-.801.527-1.422 1.217-1.861 2.072a5.92 5.92 0 0 0-.637 2.396zm-.01.363v2.266l.003.247v.025h-1.671v-2.901h1.678l-.01.363z" class="B"/><path d="M137.537 26.001v2.901h1.671v-.025l-.003-.247v-2.266l.01-.362h-1.678z"/><path d="M188.644 20.899v-3.108h-4.073v-4.766h-3.866v4.766h-2.909v3.108h2.909v11.745c0 1.2.272 2.197.815 2.991a4.88 4.88 0 0 0 2.133 1.761c.879.38 1.827.561 2.844.544.621-.009 1.138-.06 1.552-.155.414-.086.733-.173.957-.259l-.699-3.198-.543.104a4.51 4.51 0 0 1-.814.065c-.422 0-.815-.065-1.177-.194-.353-.138-.642-.393-.866-.764-.224-.38-.336-.945-.336-1.696V20.899h4.073zm-4.073 0v-3.108h-3.866v3.108h3.866z" class="B"/><path d="M184.571 20.899v-3.108h-3.866v3.108h3.866z"/></g></svg>
